<?xml version="1.0" encoding="utf-8"?>
<!-- Generator: Adobe Illustrator 23.0.6, SVG Export Plug-In . SVG Version: 6.00 Build 0)  -->
<svg version="1.1" id="Layer_1" xmlns="http://www.w3.org/2000/svg" xmlns:xlink="http://www.w3.org/1999/xlink" x="0px" y="0px"
	 viewBox="0 0 1198.7 417.2" style="enable-background:new 0 0 1198.7 417.2;" xml:space="preserve">
<style type="text/css">
	.st0{fill:#D6D6D2;stroke:#343419;stroke-width:3;stroke-miterlimit:10;}
	.st1{fill:#FFFFFF;stroke:#333000;stroke-width:2;stroke-miterlimit:10;}
	.st2{fill:none;stroke:#343419;stroke-width:2;stroke-miterlimit:10;}
	.st3{fill:#343419;}
	.st4{fill:#FFFFFF;}
	.st5{fill:#333000;}
	.st6{fill:#333000;stroke:#333000;stroke-miterlimit:10;}
	.st7{fill:#659999;}
	.st8{fill:#669999;}
	.st9{font-family:'Montserrat-Medium';}
	.st10{font-size:83.6073px;}
</style>
<g>
	<path class="st0" d="M271.1,194.7c-2.4-29.2-13-40.5-44.3-42.8c-37.7-2.7-41-9.4-66-14.8c-47.6-10.2-92.4,35-69.8,72.2
		c24.5,40.3,56.7,66.5,98.7,55.6c0.4-0.7,0.8-1.4,1.3-2c3.4-4.5,8.3-6.1,13.7-5.3c1.1,0.2,2,0.7,2.6,1.4c0,0,0,0,0,0
		C233.2,249.5,274.1,231.5,271.1,194.7z"/>
	<path class="st1" d="M267.3,200.8c-2.4-29.2-13-40.5-44.3-42.8c-37.7-2.7-41-9.4-66-14.8c-47.6-10.2-92.4,35-69.8,72.2
		c24.9,41,57.8,67.4,100.9,55c0.3-2.7,1.4-5.3,3-7.5c3.4-4.5,8.3-6.1,13.7-5.3c1.1,0.2,2,0.7,2.6,1.4c1.7,0.6,3.2,1.6,4.3,2.9
		C237.1,251.7,269.9,233.8,267.3,200.8z"/>
	<path class="st2" d="M106.8,148.2c2-5.7-25.2,3.8-40-12.7c-18.5-20.7-7.3-43.6-7-44.4"/>
	<ellipse class="st3" cx="43" cy="27.1" rx="5.9" ry="5.9"/>
	<ellipse class="st3" cx="65.7" cy="81.9" rx="12.4" ry="12.4"/>
	<path class="st2" d="M43,27.1c0.6,0.3,14.5,7.8,21.5,23c5.6,12.3,2.9,23.6,2.5,24.1"/>
	<path class="st4" d="M267.3,200.3c-2.4-29-12.9-40.2-44.1-42.4c-37.5-2.7-40.8-9.4-65.6-14.7c-47.4-10.1-92,34.7-69.5,71.6
		c24.8,40.6,57.3,66.7,100,54.7c0.4-2.4,1.4-4.6,2.8-6.6c3.4-4.5,8.3-6.1,13.7-5.3c1.1,0.2,2,0.7,2.6,1.4c1.4,0.5,2.7,1.3,3.7,2.3
		C236.5,251.3,270,233.5,267.3,200.3z"/>
	<circle class="st5" cx="146.7" cy="268.8" r="11.8"/>
	
		<ellipse transform="matrix(0.6478 -0.7618 0.7618 0.6478 -70.4299 131.362)" class="st6" cx="106.9" cy="141.9" rx="26.2" ry="26"/>
	
		<ellipse transform="matrix(0.6478 -0.7618 0.7618 0.6478 -67.8902 134.8554)" class="st7" cx="111.9" cy="140.9" rx="18.5" ry="18.3"/>
	
		<ellipse transform="matrix(0.6478 -0.7618 0.7618 0.6478 -81.1981 280.8625)" class="st6" cx="263.2" cy="228.2" rx="19.7" ry="19.5"/>
	<circle class="st8" cx="264.6" cy="222.7" r="12.1"/>
	<circle class="st8" cx="146.7" cy="268.8" r="4"/>
</g>
<g>
	<g>
		<ellipse class="st8" cx="634.2" cy="290.2" rx="7.8" ry="8.1"/>
		<text transform="matrix(0.8615 0 0 1 176.9726 299.1845)" class="st3 st9 st10">mindscapes</text>
		<ellipse class="st5" cx="633.3" cy="292.3" rx="4.9" ry="5.1"/>
	</g>
</g>
<text transform="matrix(1 0 0 1 28.3916 -111.3084)" style="font-family:'Montserrat-Light'; font-size:39px;">Lorem ipsum</text>
</svg>
