<svg id="Layer_1" data-name="Layer 1" xmlns="http://www.w3.org/2000/svg" viewBox="0 0 553.89 378.37"><defs><style>.cls-1{fill:none;stroke:#343419;stroke-miterlimit:10;}.cls-2,.cls-4,.cls-5{fill:#343419;}.cls-3{fill:#659999;}.cls-4{font-size:60px;font-family:Moon-Light, Moon;font-weight:300;}.cls-5{font-size:22px;font-family:Montserrat-Regular, Montserrat;}.cls-6{letter-spacing:-0.01em;}.cls-7{letter-spacing:0em;}</style></defs><title>logo2</title><path class="cls-1" d="M225.08,318.63c1.58-4.6-20.29,3.07-32.18-10.19-14.94-16.67-5.87-35.13-5.6-35.75" transform="translate(-121.48 -216.27)"/><path class="cls-1" d="M344.18,365.38C346.9,399,304,413.09,285.1,419.92c-37.05,13.38-65-8.25-86-42.77C180.91,347.2,217,310.78,255.37,319c20.07,4.31,22.79,9.76,53.12,11.92C333.73,332.72,342.27,341.85,344.18,365.38Z" transform="translate(-121.48 -216.27)"/><circle class="cls-2" cx="224.46" cy="157.85" r="13.63"/><ellipse class="cls-3" cx="233.96" cy="316.61" rx="21.41" ry="21.19" transform="translate(-280.28 73.47) rotate(-49.62)"/><circle class="cls-2" cx="173.73" cy="221.05" r="4.78" transform="translate(-138.79 -201.49) rotate(-4.64)"/><circle class="cls-2" cx="436.24" cy="381.3" r="6.82" transform="translate(-150.89 -179.74) rotate(-4.64)"/><path class="cls-1" d="M348.6,376.24c.73.93,18.24,22.61,46.94,24,27.9,1.32,40-17.81,40.7-18.91" transform="translate(-121.48 -216.27)"/><circle class="cls-2" cx="125.02" cy="205.42" r="11.24"/><circle class="cls-2" cx="191.96" cy="265.17" r="9.96" transform="translate(-142.3 -199.87) rotate(-4.64)"/><path class="cls-1" d="M173.73,221.05c.48.24,11.68,6.28,17.28,18.5,4.55,9.91,2.32,19,2,19.38" transform="translate(-121.48 -216.27)"/><text class="cls-4" transform="translate(0 318.29)">mindscapes</text><text class="cls-5" transform="translate(0 353.61)"><tspan class="cls-6">C</tspan><tspan x="15.64" y="0">aptu</tspan><tspan class="cls-6" x="67.28" y="0">r</tspan><tspan x="75.92" y="0">i</tspan><tspan class="cls-7" x="81.84" y="0">n</tspan><tspan x="96.78" y="0">g </tspan><tspan class="cls-7" x="117.63" y="0">L</tspan><tspan x="130.63" y="0">a</tspan><tspan class="cls-7" x="143.61" y="0">n</tspan><tspan x="158.55" y="0">dscapes of t</tspan><tspan class="cls-7" x="290.26" y="0">h</tspan><tspan x="305.2" y="0">e Mi</tspan><tspan class="cls-7" x="351.18" y="0">n</tspan><tspan x="366.12" y="0">d</tspan></text></svg>