<svg id="Layer_1" data-name="Layer 1" xmlns="http://www.w3.org/2000/svg" viewBox="0 0 870.63 436.14"><defs><style>.cls-1{fill:#d6d6d2;stroke-width:3px;}.cls-1,.cls-3{stroke:#343419;}.cls-1,.cls-2,.cls-3,.cls-7{stroke-miterlimit:10;}.cls-2,.cls-5{fill:#fff;}.cls-2,.cls-7{stroke:#333000;}.cls-2,.cls-3{stroke-width:2px;}.cls-10,.cls-3{fill:none;}.cls-11,.cls-4{fill:#343419;}.cls-6,.cls-7{fill:#333000;}.cls-8{fill:#659999;}.cls-9{fill:#699;}.cls-11{isolation:isolate;font-size:83.61px;font-family:Montserrat-Medium, Montserrat;font-weight:500;}.cls-12{letter-spacing:0em;}</style></defs><title>logo4</title><path class="cls-1" d="M271.12,194.75c3.38,41.71-49.85,59.24-73.34,67.72-46,16.61-80.68-10.24-106.76-53.11-22.61-37.17,22.21-82.4,69.84-72.18,24.91,5.35,28.29,12.12,65.95,14.8C258.15,154.2,268.75,165.54,271.12,194.75Z" transform="translate(-37.08 -21.16)"/><path class="cls-2" d="M267.26,200.76c3.39,41.72-49.84,59.25-73.34,67.73-46,16.61-80.68-10.24-106.75-53.11C64.56,178.2,109.38,133,157,143.2c24.91,5.35,28.29,12.12,66,14.79C254.3,160.22,264.89,171.55,267.26,200.76Z" transform="translate(-37.08 -21.16)"/><path class="cls-3" d="M106.77,148.25c2-5.71-25.19,3.81-40-12.66-18.54-20.69-7.29-43.61-7-44.38" transform="translate(-37.08 -21.16)"/><circle class="cls-4" cx="5.93" cy="5.93" r="5.93"/><circle class="cls-4" cx="28.58" cy="60.71" r="12.37"/><path class="cls-3" d="M43,27.09c.6.31,14.51,7.8,21.46,23,5.64,12.3,2.88,23.61,2.5,24.06" transform="translate(-37.08 -21.16)"/><path class="cls-5" d="M267.27,200.32c3.36,41.4-49.58,58.79-72.95,67.21C148.56,284,114.07,257.36,88.14,214.82c-22.49-36.89,22.08-81.77,69.46-71.63,24.78,5.31,28.14,12,65.6,14.68C254.37,160.08,264.91,171.33,267.27,200.32Z" transform="translate(-37.08 -21.16)"/><circle class="cls-6" cx="109.63" cy="247.65" r="11.81"/><ellipse class="cls-7" cx="106.85" cy="141.85" rx="26.23" ry="25.96" transform="translate(-107.51 110.21) rotate(-49.62)"/><ellipse class="cls-8" cx="111.9" cy="140.85" rx="18.49" ry="18.3" transform="translate(-104.97 113.7) rotate(-49.62)"/><ellipse class="cls-7" cx="263.16" cy="228.25" rx="19.74" ry="19.53" transform="translate(-118.27 259.71) rotate(-49.62)"/><circle class="cls-9" cx="227.55" cy="201.55" r="12.09"/><circle class="cls-9" cx="109.63" cy="247.65" r="3.99"/><rect class="cls-10" x="106.63" y="373.93" width="760.46" height="62.22"/><rect class="cls-10" x="136.31" y="244.05" width="734.31" height="88.08"/><ellipse class="cls-9" cx="592.65" cy="267.62" rx="7.38" ry="8.56"/><text class="cls-11" transform="translate(139.9 276.03) scale(0.86 1)">mi<tspan class="cls-12" x="111.7" y="0">n</tspan><tspan x="168.88" y="0">dscapes.io</tspan></text></svg>